<?xml version="1.0" encoding="utf-8"?>
<!-- Generator: Adobe Illustrator 25.3.0, SVG Export Plug-In . SVG Version: 6.00 Build 0)  -->
<svg version="1.1" id="Capa_1" xmlns="http://www.w3.org/2000/svg" xmlns:xlink="http://www.w3.org/1999/xlink" x="0px" y="0px"
	 viewBox="0 0 805 600" style="enable-background:new 0 0 805 600;" xml:space="preserve">
<style type="text/css">
	.st0{fill:#FFFFFF;}
	.st1{fill:none;stroke:#CCCCCC;}
	.st2{fill:#08306B;}
	.st3{fill:#ACD0E6;}
	.st4{fill:#B5D4E9;}
	.st5{fill:#C0D9ED;}
	.st6{fill:#CDE0F1;}
	.st7{fill:#D1E3F3;}
	.st8{fill:#D7E6F5;}
	.st9{fill:#DAE8F6;}
	.st10{fill:#DBE9F6;}
	.st11{fill:#E2EEF8;}
	.st12{fill:#E3EEF9;}
	.st13{fill:#E6F0FA;}
	.st14{fill:#E7F0FA;}
	.st15{fill:#E7F1FA;}
	.st16{fill:#E9F2FA;}
	.st17{fill:#ECF4FC;}
	.st18{fill:#EEF5FC;}
	.st19{fill:#EFF6FD;}
	.st20{fill:#F0F7FD;}
	.st21{fill:#F1F7FD;}
	.st22{fill:#F2F8FD;}
	.st23{fill:#F3F8FE;}
	.st24{fill:#F4F9FE;}
	.st25{fill:#F5FAFE;}
	.st26{fill:#F6FBFF;}
	.st27{fill:#F7FBFF;}
	.st28{font-family:'Arial-BoldMT';}
	.st29{font-size:27.5155px;}
	.st30{font-size:10px;}
	.st31{enable-background:new    ;}
</style>
<rect id="backgorund" class="st0" width="805" height="600"/>
<g id="viz" transform="translate(20,20)">
	<g id="nodes">
		<g transform="translate(383.5,281)">
			<path id="p_943.5" class="st1" d="M0,280c-154.64,0-280-125.36-280-280S-154.64-280,0-280S280-154.64,280,0S154.64,280,0,280z"/>
		</g>
		<g id="China" transform="translate(310.9542636451096,276.8704839480431)">
			<path id="p_699.7332845314912" class="st2" d="M0,112.91c-62.36,0-112.91-50.55-112.91-112.91S-62.36-112.91,0-112.91
				S112.91-62.36,112.91,0S62.36,112.91,0,112.91z"/>
		</g>
		<g id="India" transform="translate(492.20835911475046,276.8704839480431)">
			<path id="p_834.4779101623369" class="st3" d="M0,66.4c-36.67,0-66.4-29.73-66.4-66.4S-36.67-66.4,0-66.4S66.4-36.67,66.4,0
				S36.67,66.4,0,66.4z"/>
		</g>
		<g id="Brazil" transform="translate(441.4217613602651,398.7194005155037)">
			<path id="p_902.8048340070981" class="st4" d="M0,63.66c-35.16,0-63.66-28.5-63.66-63.66S-35.16-63.66,0-63.66
				S63.66-35.16,63.66,0S35.16,63.66,0,63.66z"/>
		</g>
		<g id="Pakistan" transform="translate(440.3625911956714,159.97013158812643)">
			<path id="p_658.8686563965571" class="st5" d="M0,59.54c-32.88,0.01-59.54-26.65-59.55-59.53S-32.9-59.53-0.02-59.54
				c0.01,0,0.01,0,0.02,0c32.88-0.01,59.54,26.65,59.55,59.53S32.9,59.53,0.02,59.54C0.01,59.54,0.01,59.54,0,59.54z"/>
		</g>
		<g id="United_States" transform="translate(336.47091841548684,110.27538536782663)">
			<path id="p_499.4291837354171" class="st6" d="M0,53.68c-29.65,0-53.68-24.03-53.68-53.68S-29.65-53.68,0-53.68
				S53.68-29.65,53.68,0S29.65,53.68,0,53.68z"/>
		</g>
		<g id="Nigeria" transform="translate(332.5373035253772,441.81023034272533)">
			<path id="p_824.8383727481876" class="st7" d="M0,51.49C-28.44,51.5-51.5,28.45-51.5,0.01s23.04-51.5,51.48-51.5
				c0.01,0,0.01,0,0.02,0C28.44-51.5,51.5-28.45,51.5-0.01s-23.04,51.5-51.48,51.5C0.01,51.49,0.01,51.49,0,51.49z"/>
		</g>
		<g id="Russia" transform="translate(552.5082439437607,173.3480356940342)">
			<path id="p_776.3146167146731" class="st7" d="M0,51.46c-28.42,0.01-51.46-23.03-51.47-51.45s23.03-51.46,51.45-51.47
				c0.01,0,0.01,0,0.02,0c28.42-0.01,51.46,23.03,51.47,51.45S28.44,51.45,0.02,51.46C0.01,51.46,0.01,51.46,0,51.46z"/>
		</g>
		<g id="Egypt" transform="translate(552.9764483785152,376.2920982286531)">
			<path id="p_976.4451664752218" class="st8" d="M0,48.18c-26.61,0-48.18-21.56-48.18-48.17c0-26.61,21.56-48.18,48.17-48.18
				c0,0,0.01,0,0.01,0c26.61,0,48.18,21.56,48.18,48.17c0,26.61-21.56,48.18-48.17,48.18C0.01,48.18,0,48.18,0,48.18z"/>
		</g>
		<g id="Turkey" transform="translate(237.5897725918171,133.72633098642476)">
			<path id="p_416.3106853245753" class="st9" d="M0,45.99c-25.4,0-46-20.59-46-45.99s20.59-46,45.99-46c0,0,0.01,0,0.01,0
				c25.4,0,46,20.59,46,45.99s-20.59,46-45.99,46C0.01,45.99,0,45.99,0,45.99z"/>
		</g>
		<g id="Japan" transform="translate(236.72120016219395,418.6105108025151)">
			<path id="p_699.479129222046" class="st10" d="M0,45.15c-24.93,0-45.15-20.21-45.15-45.15S-24.93-45.15,0-45.15
				S45.15-24.93,45.15,0S24.93,45.15,0,45.15z"/>
		</g>
		<g id="Mexico" transform="translate(418.35688041420946,60.924674222534776)">
			<path id="p_518.2597324475047" class="st11" d="M0,39.98c-22.08,0-39.98-17.9-39.98-39.98S-22.08-39.98,0-39.98
				S39.98-22.08,39.98,0S22.08,39.98,0,39.98z"/>
		</g>
		<g id="Indonesia" transform="translate(406.45061739153476,497.2928944635355)">
			<path id="p_941.7264389796766" class="st12" d="M0,38.98c-21.53,0-38.98-17.45-38.98-38.98S-21.53-38.98,0-38.98
				S38.98-21.53,38.98,0S21.53,38.98,0,38.98z"/>
		</g>
		<g id="Peru" transform="translate(181.9719262823209,197.43229600212715)">
			<path id="p_415.0314339812934" class="st13" d="M0,36.63c-20.23,0-36.63-16.39-36.63-36.62c0-20.23,16.39-36.63,36.62-36.63
				c0,0,0.01,0,0.01,0c20.23,0,36.63,16.39,36.63,36.62c0,20.23-16.39,36.63-36.62,36.63C0.01,36.63,0,36.63,0,36.63z"/>
		</g>
		<g id="Democratic_Republic_of_the_Congo" transform="translate(181.93305884207726,355.6901767504985)">
			<path id="p_572.960188697355" class="st14" d="M0,36.34c-20.07,0-36.34-16.26-36.34-36.33s16.26-36.34,36.33-36.34
				c0,0,0.01,0,0.01,0c20.07,0,36.34,16.26,36.34,36.33S20.08,36.33,0.01,36.34C0.01,36.34,0,36.34,0,36.34z"/>
		</g>
		<g id="United_Kingdom" transform="translate(593.9097506462119,252.7807367153973)">
			<path id="p_881.8604251031965" class="st15" d="M0,36.17c-19.98,0-36.17-16.19-36.18-36.16c0-19.98,16.19-36.17,36.16-36.18
				c0,0,0.01,0,0.01,0c19.98,0,36.17,16.19,36.18,36.16c0,19.98-16.19,36.17-36.16,36.18C0.01,36.17,0,36.17,0,36.17z"/>
		</g>
		<g id="Colombia" transform="translate(617.3376028274142,321.4470887860773)">
			<path id="p_972.2212235411151" class="st16" d="M0,34.44c-19.02,0-34.44-15.42-34.44-34.44S-19.02-34.44,0-34.44
				S34.44-19.02,34.44,0S19.02,34.44,0,34.44z"/>
		</g>
		<g id="Somalia" transform="translate(510.744708961456,100.07077899096703)">
			<path id="p_640.7537042319921" class="st17" d="M0,30.94c-17.09,0-30.94-13.85-30.94-30.94S-17.09-30.94,0-30.94
				S30.94-17.09,30.94,0S17.09,30.94,0,30.94z"/>
		</g>
		<g id="Chile" transform="translate(521.5379131356829,448.7064754093392)">
			<path id="p_998.065710365484" class="st18" d="M0,28.82c-15.92,0-28.82-12.9-28.82-28.82s12.9-28.82,28.82-28.82c0,0,0,0,0.01,0
				c15.92,0,28.82,12.9,28.82,28.82S15.92,28.82,0,28.82C0,28.82,0,28.82,0,28.82z"/>
		</g>
		<g id="Sudan" transform="translate(168.88041280469122,262.6349436003845)">
			<path id="p_458.4455853328353" class="st19" d="M0,27.93c-15.43,0-27.93-12.5-27.93-27.93s12.5-27.93,27.93-27.93
				c0,0,0.01,0,0.01,0c15.43,0,27.93,12.5,27.93,27.93S15.43,27.93,0,27.93C0.01,27.93,0,27.93,0,27.93z"/>
		</g>
		<g id="Angola" transform="translate(136.41823129989314,309.12883808445696)">
			<path id="p_471.3755115089168" class="st20" d="M0,26.83c-14.82,0-26.83-12.01-26.83-26.83S-14.82-26.83,0-26.83
				S26.83-14.82,26.83,0S14.82,26.83,0,26.83z"/>
		</g>
		<g id="Canada" transform="translate(266.08890499378964,485.85289867116614)">
			<path id="p_777.2236448296252" class="st21" d="M0,26.28c-14.52,0-26.28-11.77-26.28-26.28S-14.52-26.28,0-26.28
				S26.28-14.52,26.28,0S14.52,26.28,0,26.28z"/>
		</g>
		<g id="Tanzania" transform="translate(267.8819469073457,66.65073342600058)">
			<path id="p_359.19019146806755" class="st21" d="M0,25.66c-14.17,0-25.66-11.49-25.66-25.66c0-14.17,11.49-25.66,25.66-25.66
				c0,0,0,0,0,0c14.17,0,25.66,11.49,25.66,25.66C25.66,14.17,14.17,25.66,0,25.66C0,25.66,0,25.66,0,25.66z"/>
		</g>
		<g id="Ivory_Coast" transform="translate(484.10617564844404,48.74350589676254)">
			<path id="p_556.7931712842183" class="st22" d="M0,24.94c-13.78,0-24.95-11.16-24.95-24.94s11.16-24.95,24.94-24.95
				c0,0,0.01,0,0.01,0c13.78,0,24.95,11.16,24.95,24.94S13.79,24.94,0.01,24.94C0.01,24.94,0,24.94,0,24.94z"/>
		</g>
		<g id="South_Africa" transform="translate(469.38336689945095,483.35801878989093)">
			<path id="p_975.2690204372196" class="st23" d="M0,23.53c-12.99,0-23.53-10.53-23.53-23.53S-12.99-23.53,0-23.53
				S23.53-12.99,23.53,0S12.99,23.53,0,23.53z"/>
		</g>
		<g id="Germany" transform="translate(358.77342300201894,34.68820535892249)">
			<path id="p_415.64103499406593" class="st23" d="M0,23.18C-12.8,23.18-23.18,12.8-23.18,0S-12.8-23.18,0-23.18
				S23.18-12.8,23.18,0S12.8,23.18,0,23.18z"/>
		</g>
		<g id="Venezuela" transform="translate(513.6883962282949,501.1662008067132)">
			<path id="p_1036.1305176676415" class="st24" d="M0,22.28c-12.3,0-22.28-9.97-22.28-22.28S-12.3-22.28,0-22.28
				S22.28-12.3,22.28,0S12.3,22.28,0,22.28z"/>
		</g>
		<g id="Spain" transform="translate(346.4608636026795,515.7986899414148)">
			<path id="p_883.1093913222585" class="st24" d="M0,21.85c-12.07,0-21.85-9.78-21.85-21.85S-12.07-21.85,0-21.85c0,0,0,0,0,0
				c12.07,0,21.85,9.78,21.85,21.85S12.07,21.85,0,21.85C0,21.85,0,21.85,0,21.85z"/>
		</g>
		<g id="Argentina" transform="translate(168.3281493309033,413.867433095867)">
			<path id="p_602.6589931939378" class="st24" d="M0,21.46c-11.85,0-21.47-9.61-21.47-21.46s9.61-21.47,21.46-21.47c0,0,0,0,0.01,0
				c11.85,0,21.47,9.61,21.47,21.46S11.86,21.46,0,21.46C0,21.46,0,21.46,0,21.46z"/>
		</g>
		<g id="Ukraine" transform="translate(168.93059883306964,139.35630160910262)">
			<path id="p_328.23543976441323" class="st25" d="M0,20.95c-11.57,0-20.95-9.38-20.95-20.95S-11.57-20.95,0-20.95
				S20.95-11.57,20.95,0S11.57,20.95,0,20.95z"/>
		</g>
		<g id="Italy" transform="translate(621.5082472856747,200.70496020271077)">
			<path id="p_842.0337235714546" class="st25" d="M0,20.82c-11.5,0-20.82-9.32-20.82-20.82S-11.5-20.82,0-20.82S20.82-11.5,20.82,0
				S11.5,20.82,0,20.82z"/>
		</g>
		<g id="France" transform="translate(134.44149466978052,228.82219593468932)">
			<path id="p_380.65021699656387" class="st26" d="M0,18.39c-10.15,0-18.39-8.23-18.39-18.39S-10.15-18.39,0-18.39
				S18.39-10.15,18.39,0S10.15,18.39,0,18.39z"/>
		</g>
		<g id="Cuba" transform="translate(561.4365771845848,102.63275264659094)">
			<path id="p_680.9411902954363" class="st27" d="M0,17.87c-9.87,0-17.87-8-17.88-17.87c0-9.87,8-17.87,17.87-17.88c0,0,0,0,0.01,0
				c9.87,0,17.87,8,17.88,17.87C17.88,9.87,9.88,17.87,0,17.87C0,17.87,0,17.87,0,17.87z"/>
		</g>
		<g id="Belarus" transform="translate(568.9296029930001,441.6434941258497)">
			<path id="p_1026.7203960144998" class="st27" d="M0,17.15c-9.47,0-17.15-7.68-17.15-17.15S-9.47-17.15,0-17.15
				S17.15-9.47,17.15,0S9.47,17.15,0,17.15z"/>
		</g>
	</g>
	<g id="labels">
		<g transform="translate(310.9542636451096,276.8704839480431)">
			<text transform="matrix(1 0 0 1 -37.1632 12.0802)" class="st0 st28 st29">China</text>
		</g>
		<g transform="translate(492.20835911475046,276.8704839480431)">
			<text transform="matrix(1 0 0 1 -11.6675 -5.625)" class="st28 st30">India</text>
		</g>
		<g transform="translate(441.4217613602651,398.7194005155037)">
			<text transform="matrix(1 0 0 1 -13.6157 -5.625)" class="st28 st30">Brazil</text>
		</g>
		<g transform="translate(440.3625911956714,159.97013158812643)">
			<text transform="matrix(1 0 0 1 -20.5664 -5.625)" class="st28 st30">Pakistan</text>
		</g>
		<g transform="translate(336.47091841548684,110.27538536782663)">
			<text transform="matrix(1 0 0 1 -31.9507 -5.625)" class="st28 st30">United States</text>
		</g>
		<g transform="translate(332.5373035253772,441.81023034272533)">
			<text transform="matrix(1 0 0 1 -16.9507 -5.625)" class="st28 st30">Nigeria</text>
		</g>
		<g transform="translate(552.5082439437607,173.3480356940342)">
			<text transform="matrix(1 0 0 1 -16.3965 -5.625)" class="st28 st30">Russia</text>
		</g>
		<g transform="translate(552.9764483785152,376.2920982286531)">
			<text transform="matrix(1 0 0 1 -13.8892 -5.625)" class="st28 st30">Egypt</text>
		</g>
		<g transform="translate(237.5897725918171,133.72633098642476)">
			<text transform="matrix(1 0 0 1 -16.0254 -5.625)" class="st28 st30">Turkey</text>
		</g>
		<g transform="translate(236.72120016219395,418.6105108025151)">
			<text transform="matrix(1 0 0 1 -14.4507 -5.625)" class="st28 st30">Japan</text>
		</g>
		<g transform="translate(418.35688041420946,60.924674222534776)">
			<text transform="matrix(1 0 0 1 -16.9507 -5.625)" class="st28 st30">Mexico</text>
		</g>
		<g transform="translate(406.45061739153476,497.2928944635355)">
			<text transform="matrix(1 0 0 1 -23.3374 -5.625)" class="st28 st30">Indonesia</text>
		</g>
		<g transform="translate(181.9719262823209,197.43229600212715)">
			<text transform="matrix(1 0 0 1 -11.1157 -5.625)" class="st28 st30">Peru</text>
		</g>
		<g transform="translate(181.93305884207726,355.6901767504985)">
			<text transform="matrix(1 0 0 1 -49.7364 -2.445937e-04)" class="st31"><tspan x="0" y="0" class="st28 st30">Democratic Republic</tspan><tspan x="18.91" y="12" class="st28 st30">of the Congo</tspan></text>
		</g>
		<g transform="translate(593.9097506462119,252.7807367153973)">
			<text transform="matrix(1 0 0 1 -38.606 -5.625)" class="st28 st30">United Kingdom</text>
		</g>
		<g transform="translate(617.3376028274142,321.4470887860773)">
			<text transform="matrix(1 0 0 1 -22.7783 -5.625)" class="st28 st30">Colombia</text>
		</g>
		<g transform="translate(510.744708961456,100.07077899096703)">
			<text transform="matrix(1 0 0 1 -19.1748 -5.625)" class="st28 st30">Somalia</text>
		</g>
		<g transform="translate(521.5379131356829,448.7064754093392)">
			<text transform="matrix(1 0 0 1 -12.2241 -5.625)" class="st28 st30">Chile</text>
		</g>
		<g transform="translate(168.88041280469122,262.6349436003845)">
			<text transform="matrix(1 0 0 1 -15.2783 -5.625)" class="st28 st30">Sudan</text>
		</g>
		<g transform="translate(136.41823129989314,309.12883808445696)">
			<text transform="matrix(1 0 0 1 -16.9434 -5.625)" class="st28 st30">Angola</text>
		</g>
		<g transform="translate(266.08890499378964,485.85289867116614)">
			<text transform="matrix(1 0 0 1 -18.0615 -5.625)" class="st28 st30">Canada</text>
		</g>
		<g transform="translate(267.8819469073457,66.65073342600058)">
			<text transform="matrix(1 0 0 1 -21.0229 -5.625)" class="st28 st30">Tanzania</text>
		</g>
		<g transform="translate(484.10617564844404,48.74350589676254)">
			<text transform="matrix(1 0 0 1 -27.2314 -5.625)" class="st28 st30">Ivory Coast</text>
		</g>
		<g transform="translate(469.38336689945095,483.35801878989093)">
			<text transform="matrix(1 0 0 1 -29.5386 -5.625)" class="st28 st30">South Africa</text>
		</g>
		<g transform="translate(358.77342300201894,34.68820535892249)">
			<text transform="matrix(1 0 0 1 -21.6772 -5.625)" class="st28 st30">Germany</text>
		</g>
		<g transform="translate(513.6883962282949,501.1662008067132)">
			<text transform="matrix(1 0 0 1 -24.1797 -5.625)" class="st28 st30">Venezuela</text>
		</g>
		<g transform="translate(346.4608636026795,515.7986899414148)">
			<text transform="matrix(1 0 0 1 -13.6133 -5.625)" class="st28 st30">Spain</text>
		</g>
		<g transform="translate(168.3281493309033,413.867433095867)">
			<text transform="matrix(1 0 0 1 -23.335 -5.625)" class="st28 st30">Argentina</text>
		</g>
		<g transform="translate(168.93059883306964,139.35630160910262)">
			<text transform="matrix(1 0 0 1 -18.3423 -5.625)" class="st28 st30">Ukraine</text>
		</g>
		<g transform="translate(621.5082472856747,200.70496020271077)">
			<text transform="matrix(1 0 0 1 -10.0049 -5.625)" class="st28 st30">Italy</text>
		</g>
		<g transform="translate(134.44149466978052,228.82219593468932)">
			<text transform="matrix(1 0 0 1 -16.3965 -5.625)" class="st28 st30">France</text>
		</g>
		<g transform="translate(561.4365771845848,102.63275264659094)">
			<text transform="matrix(1 0 0 1 -12.5 -5.625)" class="st28 st30">Cuba</text>
		</g>
		<g transform="translate(568.9296029930001,441.6434941258497)">
			<text transform="matrix(1 0 0 1 -18.3423 -5.625)" class="st28 st30">Belarus</text>
		</g>
	</g>
</g>
</svg>
