<?xml version="1.0" encoding="utf-8"?>
<!-- Generator: Adobe Illustrator 25.3.0, SVG Export Plug-In . SVG Version: 6.00 Build 0)  -->
<svg version="1.1" id="Capa_1" xmlns="http://www.w3.org/2000/svg" xmlns:xlink="http://www.w3.org/1999/xlink" x="0px" y="0px"
	 viewBox="0 0 41.87 25.58" style="enable-background:new 0 0 41.87 25.58;" xml:space="preserve">
<style type="text/css">
	.st0{fill:#FFFFFF;}
</style>
<g>
	<g>
		<path d="M8.38,1C5.95,1,3.85,2.66,3.85,5.85c0,2.08,0.99,4.21,2.25,5.52c0.49,1.31-0.4,2.24-0.58,2.31C2.98,14.61,0,16.29,0,17.97
			v0.64c0,2.29,4.37,2.8,8.41,2.8c4.05,0,8.38-0.51,8.38-2.8v-0.64c0-1.73-3-3.4-5.67-4.29c-0.12-0.04-0.89-0.85-0.41-2.34h-0.03
			c1.25-1.31,2.34-3.41,2.34-5.49C13.03,2.66,10.81,1,8.38,1z"/>
	</g>
	<g>
		<path d="M33.46,1c-2.43,0-4.53,1.66-4.53,4.85c0,2.08,0.99,4.21,2.25,5.52c0.49,1.31-0.4,2.24-0.58,2.31
			c-2.54,0.93-5.52,2.61-5.52,4.29v0.64c0,2.29,4.37,2.8,8.41,2.8c4.05,0,8.38-0.51,8.38-2.8v-0.64c0-1.73-3-3.4-5.67-4.29
			c-0.12-0.04-0.89-0.85-0.41-2.34h-0.03c1.25-1.31,2.34-3.41,2.34-5.49C38.1,2.66,35.89,1,33.46,1z"/>
	</g>
	<g>
		<path d="M27.73,23.34c-6.39,0-9.5-1.14-9.5-3.5v-0.69c0-2.58,4.77-4.53,6.23-5.06l0,0c-0.02,0,0.71-0.66,0.36-1.73
			c-1.5-1.61-2.47-4.02-2.47-6.17c0-3.93,2.68-5.69,5.34-5.69c2.63,0,5.47,1.78,5.47,5.69c0,2.47-1.27,4.73-2.51,6.08
			c-0.34,1.12,0.1,1.72,0.22,1.84c3.08,1.05,6.33,2.91,6.33,5.04v0.69C37.2,22.2,34.1,23.34,27.73,23.34z"/>
		<path class="st0" d="M27.7,1c2.6,0,4.97,1.78,4.97,5.19c0,2.22-1.16,4.47-2.5,5.88h0.03c-0.51,1.59,0.31,2.46,0.44,2.5
			c2.85,0.96,6.06,2.74,6.06,4.59v0.69c0,2.45-4.63,3-8.97,3c-4.33,0-9-0.55-9-3v-0.69c0-1.8,3.19-3.6,5.91-4.59
			c0.2-0.07,1.15-1.07,0.62-2.47c-1.35-1.4-2.41-3.68-2.41-5.91C22.85,2.78,25.1,1,27.7,1 M27.7,0c-3.44,0-5.84,2.54-5.84,6.19
			c0,2.24,0.98,4.73,2.52,6.42c0.14,0.56-0.12,0.94-0.24,1.07c-1.68,0.63-6.41,2.66-6.41,5.48v0.69c0,4,7.53,4,10,4
			c2.47,0,9.97,0,9.97-4v-0.69c0-2.91-4.72-4.84-6.52-5.46c-0.09-0.16-0.24-0.54-0.08-1.17c1.28-1.43,2.56-3.78,2.56-6.33
			C33.67,1.94,30.57,0,27.7,0L27.7,0z"/>
	</g>
	<g>
		<path d="M14.45,23.34c-6.39,0-9.5-1.14-9.5-3.5v-0.69c0-2.58,4.77-4.53,6.23-5.06l0,0c-0.02,0,0.71-0.66,0.36-1.73
			c-1.5-1.61-2.47-4.02-2.47-6.17c0-3.93,2.68-5.69,5.34-5.69c2.63,0,5.47,1.78,5.47,5.69c0,2.47-1.27,4.73-2.51,6.08
			c-0.34,1.12,0.1,1.72,0.22,1.84c3.08,1.05,6.33,2.91,6.33,5.04v0.69C23.92,22.2,20.82,23.34,14.45,23.34z"/>
		<path class="st0" d="M14.42,1c2.6,0,4.97,1.78,4.97,5.19c0,2.22-1.16,4.47-2.5,5.88h0.03c-0.51,1.59,0.31,2.46,0.44,2.5
			c2.85,0.96,6.06,2.74,6.06,4.59v0.69c0,2.45-4.63,3-8.97,3c-4.33,0-9-0.55-9-3v-0.69c0-1.8,3.19-3.6,5.91-4.59
			c0.2-0.07,1.15-1.07,0.62-2.47c-1.35-1.4-2.41-3.68-2.41-5.91C9.57,2.78,11.82,1,14.42,1 M14.42,0c-3.44,0-5.84,2.54-5.84,6.19
			c0,2.24,0.98,4.73,2.52,6.42c0.14,0.56-0.12,0.94-0.24,1.07c-1.68,0.63-6.41,2.66-6.41,5.48v0.69c0,4,7.53,4,10,4
			c2.47,0,9.97,0,9.97-4v-0.69c0-2.91-4.72-4.84-6.52-5.46c-0.09-0.16-0.24-0.54-0.08-1.17c1.28-1.43,2.56-3.78,2.56-6.33
			C20.39,1.94,17.29,0,14.42,0L14.42,0z"/>
	</g>
	<g>
		<path d="M21.33,24.83c-6.56,0-9.75-1.23-9.75-3.75v-0.69c0-2.68,4.7-4.67,6.3-5.26C18,15,18.43,14.49,18.2,13.72
			c-1.52-1.65-2.5-4.1-2.5-6.3c0-3.5,2.3-5.94,5.59-5.94c2.75,0,5.72,1.86,5.72,5.94c0,2.51-1.28,4.82-2.54,6.21
			c-0.25,0.86,0.03,1.35,0.14,1.5c1.38,0.48,6.43,2.43,6.43,5.25v0.69C31.05,23.6,27.87,24.83,21.33,24.83z"/>
		<path class="st0" d="M21.3,2.23c2.6,0,4.97,1.78,4.97,5.19c0,2.22-1.16,4.47-2.5,5.88h0.03c-0.51,1.59,0.31,2.46,0.44,2.5
			c2.85,0.96,6.06,2.74,6.06,4.59v0.69c0,2.45-4.63,3-8.97,3c-4.33,0-9-0.55-9-3v-0.69c0-1.8,3.19-3.6,5.91-4.59
			c0.2-0.07,1.15-1.07,0.62-2.47c-1.35-1.4-2.41-3.68-2.41-5.91C16.46,4.01,18.7,2.23,21.3,2.23 M21.3,0.73
			c-3.74,0-6.34,2.75-6.34,6.69c0,2.34,0.97,4.86,2.56,6.65c0.02,0.19-0.03,0.33-0.08,0.42c-2.19,0.83-6.6,2.89-6.6,5.89v0.69
			c0,4.5,7.9,4.5,10.5,4.5c2.59,0,10.47,0,10.47-4.5v-0.69c0-3.07-4.34-5.03-6.64-5.86c-0.03-0.11-0.05-0.29,0.01-0.54
			c1.31-1.51,2.6-3.93,2.6-6.57C27.77,4.1,25.55,0.73,21.3,0.73L21.3,0.73z"/>
	</g>
</g>
</svg>
